<?xml version="1.0" encoding="UTF-8"?>
<svg width="100px" height="100px" viewBox="0 0 100 100" version="1.1" xmlns="http://www.w3.org/2000/svg" xmlns:xlink="http://www.w3.org/1999/xlink">
    <!-- Generator: Sketch 43.2 (39069) - http://www.bohemiancoding.com/sketch -->
    <title>Artboard</title>
    <desc>Created with Sketch.</desc>
    <defs></defs>
    <g id="Page-1" stroke="none" stroke-width="1" fill="none" fill-rule="evenodd" stroke-linecap="round">
        <g id="Artboard" stroke="#FFFFFF" stroke-width="4">
            <g id="g83" transform="translate(12.000000, 0.000000)">
                <path d="M76,86.1327586 C76,80.8948276 73.0342727,76.1068966 68.3412727,73.7637931 L51.8423636,65.5293103 C49.7109091,64.4655172 48.3636364,62.2896552 48.3636364,59.9103448 L48.3636364,53.4482759 C48.8265455,52.9224138 49.3585455,52.2448276 49.9250909,51.4448276 C52.1722727,48.2758621 53.8736364,44.787931 55.0533636,41.1275862 C57.1675455,40.4775862 58.7272727,38.5258621 58.7272727,36.2068966 L58.7272727,29.3103448 C58.7272727,27.7931034 58.0519091,26.4362069 57,25.487931 L57,15.5172414 C57,15.5172414 59.0502727,0 38,0 C16.948,0 19,15.5172414 19,15.5172414 L19,25.487931 C17.9480909,26.4362069 17.2727273,27.7931034 17.2727273,29.3103448 L17.2727273,36.2068966 C17.2727273,38.0241379 18.2296364,39.6224138 19.6615455,40.5465517 C21.3870909,48.05 25.9090909,53.4482759 25.9090909,53.4482759 L25.9090909,59.75 C25.9090909,62.0482759 24.6516364,64.1637931 22.629,65.2655172 L7.22,73.6551724 C2.76881818,76.0775862 0,80.7344828 0,85.7948276 L0,89.6551724 L0,91.3793103 C0,96.1396552 17.0136364,100 38,100 C58.9863636,100 76,96.1396552 76,91.3793103 L76,89.6551724 L76,86.1327586 L76,86.1327586 Z" id="Path"></path>
            </g>
        </g>
    </g>
</svg>