<?xml version="1.0" encoding="UTF-8" standalone="no"?>
<svg width="92px" height="120px" viewBox="0 0 92 120" version="1.1" xmlns="http://www.w3.org/2000/svg" xmlns:xlink="http://www.w3.org/1999/xlink" xmlns:sketch="http://www.bohemiancoding.com/sketch/ns">
    <!-- Generator: Sketch 3.3.2 (12043) - http://www.bohemiancoding.com/sketch -->
    <title>g83</title>
    <desc>Created with Sketch.</desc>
    <defs></defs>
    <g id="Page-1" stroke="none" stroke-width="1" fill="none" fill-rule="evenodd" sketch:type="MSPage">
        <g id="g83" sketch:type="MSLayerGroup" transform="translate(1.000000, 2.000000)" stroke="#FFFFFF" stroke-width="4" stroke-linecap="round">
            <path d="M89,99.914 C89,93.838 85.566,88.284 80.132,85.566 L61.028,76.014 C58.56,74.78 57,72.256 57,69.496 L57,62 C57.536,61.39 58.152,60.604 58.808,59.676 C61.41,56 63.38,51.954 64.746,47.708 C67.194,46.954 69,44.69 69,42 L69,34 C69,32.24 68.218,30.666 67,29.566 L67,18 C67,18 69.374,0 45,0 C20.624,0 23,18 23,18 L23,29.566 C21.782,30.666 21,32.24 21,34 L21,42 C21,44.108 22.108,45.962 23.766,47.034 C25.764,55.738 31,62 31,62 L31,69.31 C31,71.976 29.544,74.43 27.202,75.708 L9.36,85.44 C4.206,88.25 1,93.652 1,99.522 L1,104 L1,106 C1,111.522 20.7,116 45,116 C69.3,116 89,111.522 89,106 L89,104 L89,99.914 L89,99.914 Z" id="Path" sketch:type="MSShapeGroup"></path>
        </g>
    </g>
</svg>
